# AST/ASF file generated using VICON BodyLanguage
# -----------------------------------------------
:version 1.10
:name VICON
:units
  mass 1.0
  length 0.45
  angle deg
:documentation
   .ast/.asf automatically generated from VICON data using
   VICON BodyBuilder and BodyLanguage model FoxedUp or BRILLIANT.MOD
:root
   order TX TY TZ RX RY RZ
   axis XYZ
   position 0 0 0  
   orientation 0 0 0 
:bonedata
  begin
     id 1 
     name lhipjoint
     direction 0.566809 -0.746272 0.349008 
     length 2.40479 
     axis 0 0 0  XYZ
  end
  begin
     id 2 
     name lfemur
     direction 0.34202 -0.939693 0  
     length 7.1578  
     axis 0 0 20  XYZ
    dof rx ry rz
    limits (-160.0 20.0)
           (-70.0 70.0)
           (-60.0 70.0)
  end
  begin
     id 3 
     name ltibia
     direction 0.34202 -0.939693 0   
     length 7.49137   
     axis 0 0 20   XYZ
    dof rx
    limits (-10.0 170.0)
  end
  begin
     id 4 
     name lfoot
     direction 0.0665746 -0.182912 0.980873   
     length 2.36784   
     axis -90 7.62852e-016 20   XYZ
    dof rx rz
    limits (-45.0 90.0)
           (-70.0 20.0)
  end
  begin
     id 5 
     name ltoes
     direction 1.53601e-011 -4.22058e-011 1   
     length 1.18966   
     axis -90 7.62852e-016 20   XYZ
    dof rx
    limits (-90.0 20.0)
  end
  begin
     id 6 
     name rhipjoint
     direction -0.550236 -0.756381 0.353735   
     length 2.37265  
     axis 0 0 0  XYZ 
  end
  begin
     id 7 
     name rfemur
     direction -0.34202 -0.939693 0   
     length 7.43386   
     axis 0 0 -20   XYZ
    dof rx ry rz
    limits (-160.0 20.0)
           (-70.0 70.0)
           (-70.0 60.0)
  end
  begin
     id 8 
     name rtibia
     direction -0.34202 -0.939693 0   
     length 7.50908   
     axis 0 0 -20   XYZ
    dof rx
    limits (-10.0 170.0)
 end
 begin
     id 9 
     name rfoot
     direction -0.0683029 -0.187661 0.979856   
     length 2.41173  
     axis -90 -7.62852e-016 -20   XYZ
    dof rx rz
    limits (-45.0 90.0)
           (-20.0 70.0)
  end
  begin
     id 10 
     name rtoes
     direction -1.53528e-011 -4.21968e-011 1   
     length 1.21082   
     axis -90 -7.62852e-016 -20   XYZ
    dof rx
    limits (-90.0 20.0)
  end
  begin
     id 11 
     name lowerback
     direction 0.013823 0.995423 -0.0945635   
     length 2.04495   
     axis 0 0 0   XYZ
    dof rx ry rz
    limits (-20.0 45.0)
           (-30.0 30.0)
           (-30.0 30.0)
  end
  begin
     id 12 
     name upperback
     direction 0.0276657 0.9994 -0.020853   
     length 2.05008   
     axis 0 0 0   XYZ
    dof rx ry rz
    limits (-20.0 45.0)
           (-30.0 30.0)
           (-30.0 30.0)
  end
  begin
     id 13 
     name thorax
     direction 0.019782 0.999531 0.0233827   
     length 2.06488   
     axis 0 0 0   XYZ
    dof rx ry rz
    limits (-20.0 45.0)
           (-30.0 30.0)
           (-30.0 30.0)
  end
  begin
     id 14 
     name lowerneck
     direction -0.0308541 0.994709 0.0979874   
     length 1.75553   
     axis 0 0 0   XYZ
    dof rx ry rz
    limits (-20.0 45.0)
           (-30.0 30.0)
           (-30.0 30.0)
  end
  begin
     id 15 
     name upperneck
     direction 0.0588398 0.995804 -0.0700903   
     length 1.76878   
     axis 0 0 0   XYZ
    dof rx ry rz
    limits (-20.0 45.0)
           (-30.0 30.0)
           (-30.0 30.0)
  end
  begin
     id 16
     name head
     direction 0.0209966 0.999159 -0.0352225  
     length 1.77193  
     axis 0 0 0   XYZ
    dof rx ry rz
    limits (-20.0 45.0)
           (-30.0 30.0)
           (-30.0 30.0)
  end
  begin
     id 17 
     name lclavicle
     direction 0.938182 0.335073 -0.0868338  
     length 3.58396  
     axis 0 0 0   XYZ
    dof ry rz
    limits (-20.0 10.0)
           (0.0 20.0)
  end
  begin
     id 18 
     name lhumerus
     direction 1 -4.48971e-011 -1.26313e-017   
     length 4.983   
     axis 180 -30 -90   XYZ
    dof rx ry rz
    limits (-60.0 90.0)
           (-90.0 90.0)
           (-90.0 90.0)
  end
  begin
     id 19
     name lradius
     direction 1 -4.48948e-011 -5.89033e-027   
     length 3.48356   
     axis 180 -30 -90   XYZ
    dof rx
    limits (-10.0 170.0)
  end
  begin
     id 20
     name lwrist
     direction 1 -4.48977e-011 -1.48983e-026   
     length 1.74178   
     axis 9.0955e-015 90 90   XYZ
    dof ry
    limits (-180.0 0.0)
 end
  begin
     id 21 
     name lhand
     direction 1 -4.49046e-011 -2.98066e-026   
     length 0.715259   
     axis 1.90115e-014 90 90   XYZ
    dof rx rz
    limits (-90.0 90.0)
           (-45.0 45.0)
  end
  begin
     id 22 
     name lfingers
     direction 1 -4.48907e-011 -5.95731e-026   
     length 0.576661   
     axis 3.80223e-014 90 90   XYZ
    dof rx
    limits (0.0 90.0)
  end
  begin
     id 23
     name lthumb
     direction 0.707107 -6.34963e-011 0.707107   
     length 0.827973   
     axis -90 45 -3.84942e-014   XYZ
    dof rx rz
    limits (-45.0 45.0)
           (-45.0 45.0)
  end
  begin
     id 24 
     name rclavicle
     direction -0.909637 0.398485 -0.11735   
     length 3.44819  
     axis 0 0 0   XYZ 
    dof ry rz
    limits (-10.0 20.0)
           (-20.0 0.0)
  end
  begin
     id 25 
     name rhumerus
     direction -1 -4.48978e-011 -1.09333e-027  
     length 5.2419   
     axis 180 30 90   XYZ
    dof rx ry rz
    limits (-90.0 60.0)
           (-90.0 90.0)
           (-90.0 90.0)
  end
  begin
     id 26 
     name rradius
     direction -1 -4.48953e-011 -7.61841e-027   
     length 3.44417   
     axis 180 30 90   XYZ
    dof rx
    limits (-10.0 170.0)
  end
  begin
     id 27 
     name rwrist
     direction -1 -4.48977e-011 -1.48983e-026   
     length 1.72209   
     axis 9.0955e-015 -90 -90   XYZ
    dof ry
    limits (-180.0 0.0)
  end
  begin
     id 28
     name rhand
     direction -1 -4.49027e-011 -2.98038e-026   
     length 0.622529   
     axis 1.90115e-014 -90 -90   XYZ
    dof rx rz
    limits (-90.0 90.0)
           (-45.0 45.0)
  end
  begin
     id 29
     name rfingers
     direction -1 -4.48838e-011 -5.95531e-026   
     length 0.501899   
     axis 3.80223e-014 -90 -90   XYZ
    dof rx
    limits (0.0 90.0)
  end
  begin
     id 30
     name rthumb
     direction -0.707107 -6.34937e-011 0.707107   
     length 0.720629   
     axis -90 -45 3.84942e-014   XYZ
    dof rx rz
    limits (-45.0 45.0)
           (-45.0 45.0)
  end
:hierarchy
  begin
    root lhipjoint rhipjoint lowerback
    lhipjoint lfemur
    lfemur ltibia
    ltibia lfoot
    lfoot ltoes
    rhipjoint rfemur
    rfemur rtibia
    rtibia rfoot
    rfoot rtoes
    lowerback upperback
    upperback thorax
    thorax lowerneck lclavicle rclavicle
    lowerneck upperneck
    upperneck head
    lclavicle lhumerus
    lhumerus lradius
    lradius lwrist
    lwrist lhand lthumb
    lhand lfingers
    rclavicle rhumerus
    rhumerus rradius
    rradius rwrist
    rwrist rhand rthumb
    rhand rfingers
  end

#!OML:ASF F:\VICON\USERDATA\Patient Classification 1\PLAYGROUND\JustinFriday\JustinFriday.ASF
:FULLY-SPECIFIED
:DEGREES
161
root 27.0588 17.7962 35.3873 -0.413366 -1.12028 -4.94373
lowerback 9.66994 0.980955 1.15183
upperback 2.97896 1.52229 3.76222
thorax -2.39825 0.750688 3.07778
lowerneck -4.70571 -7.78031 -9.05597
upperneck 25.5002 -10.3605 2.86717
head 9.44417 -5.40194 1.48187
rclavicle -4.37326e-015 1.98785e-015
rhumerus -26.5187 5.17433 -84.3717
rradius 35.9326
rwrist -15.917
rhand -17.2511 -18.1706
rfingers 7.12502
rthumb 8.993 -47.9589
lclavicle -4.37326e-015 1.98785e-015
lhumerus -35.6383 10.6715 82.8143
lradius 28.2229
lwrist 0.548046
lhand -13.4528 -4.86795
lfingers 7.12502
lthumb 12.6567 24.7286
rfemur 6.54437 3.22754 32.6593
rtibia 22.7632
rfoot -6.64994 -26.639
rtoes 28.7531
lfemur -23.9728 -0.983306 -7.78738
ltibia 17.8674
lfoot 6.58047 1.44617
ltoes 60.8298
162
root 27.0799 17.7768 35.4741 -1.07111 -0.0157944 -2.19753
lowerback 10.9686 0.566783 -1.78176
upperback 3.10659 0.665774 3.0339
thorax -2.962 0.334523 4.08115
lowerneck -4.74766 -7.58649 -8.47409
upperneck 25.4237 -10.1009 2.60255
head 9.35502 -5.25515 1.3288
rclavicle -5.56597e-015 -2.18663e-014
rhumerus -26.195 5.81917 -84.7587
rradius 35.9381
rwrist -15.9381
rhand -17.4297 -18.3913
rfingers 7.12502
rthumb 8.82074 -48.187
lclavicle -5.56597e-015 -2.18663e-014
lhumerus -35.3088 11.3757 82.5783
lradius 28.2213
lwrist 0.527114
lhand -13.8852 -5.2385
lfingers 7.12502
lthumb 12.2398 24.3833
rfemur 6.83777 4.154 30.6218
rtibia 24.1795
rfoot -7.84627 -28.7228
rtoes 28.9673
lfemur -23.3188 -1.51359 -11.0068
ltibia 17.5546
lfoot 6.92466 3.10415
ltoes 60.8973
163
root 27.116 17.7638 35.6137 -1.04646 -0.149442 -2.11694
lowerback 10.8953 0.466675 -1.8935
upperback 3.20671 0.520494 3.0692
thorax -2.80604 0.258433 4.20109
lowerneck -4.48389 -7.45841 -8.44064
upperneck 24.9338 -9.97345 2.77241
head 9.1308 -5.18022 1.41292
rclavicle 8.74653e-015 -3.18055e-015
rhumerus -26.1502 6.04945 -84.7493
rradius 36.0918
rwrist -15.861
rhand -17.4398 -18.956
rfingers 7.12502
rthumb 8.81092 -48.7521
lclavicle 8.74653e-015 -3.18055e-015
lhumerus -34.9313 11.9022 82.5851
lradius 28.0545
lwrist 0.0748075
lhand -13.5927 -5.38105
lfingers 7.12502
lthumb 12.5218 24.2238
rfemur 6.63622 4.03651 30.4713
rtibia 25.4836
rfoot -7.96343 -28.8404
rtoes 27.6311
lfemur -23.0463 -1.99477 -11.1958
ltibia 17.7685
lfoot 7.05453 3.25645
ltoes 60.6543
164
root 27.1499 17.761 35.7564 -1.05654 -0.35038 -2.16361
lowerback 10.9016 0.519423 -1.80971
upperback 3.21631 0.603256 3.18724
thorax -2.80718 0.29917 4.26662
lowerneck -4.39979 -7.75759 -9.24148
upperneck 24.9473 -10.4551 3.42495
head 9.23863 -5.41512 1.71009
rclavicle 7.65321e-015 1.78906e-014
rhumerus -26.4242 5.88938 -84.4745
rradius 36.4483
rwrist -16.0812
rhand -17.7565 -20.1357
rfingers 7.12502
rthumb 8.50529 -49.9444
lclavicle 7.65321e-015 1.78906e-014
lhumerus -34.7137 11.7135 82.987
lradius 28.0102
lwrist -0.0651102
lhand -13.0998 -5.1366
lfingers 7.12502
lthumb 12.997 24.4385
rfemur 6.27878 3.98413 30.4991
rtibia 27.2771
rfoot -7.8254 -29.0046
rtoes 25.7899
lfemur -22.4657 -2.41299 -11.2489
ltibia 17.4443
lfoot 7.256 3.52889
ltoes 60.2386
165
root 27.1799 17.7649 35.9091 -1.05325 -0.693539 -2.1571
lowerback 10.8103 0.631178 -1.76772
upperback 3.18683 0.758798 3.25197
thorax -2.80178 0.376742 4.29014
lowerneck -4.29122 -7.95015 -10.0957
upperneck 25.2125 -10.8059 4.11619
head 9.43423 -5.59177 2.0419
rclavicle 1.98785e-016 -2.38542e-015
rhumerus -26.7549 5.45837 -84.2037
rradius 36.3365
rwrist -16.4198
rhand -18.6759 -19.5196
rfingers 7.12502
rthumb 7.61798 -49.3624
lclavicle 1.98785e-016 -2.38542e-015
lhumerus -34.6646 11.5354 83.2795
lradius 28.0701
lwrist -0.302052
lhand -12.9813 -5.29054
lfingers 7.12502
lthumb 13.1113 24.2773
rfemur 5.98585 4.03439 30.4018
rtibia 28.8163
rfoot -7.83462 -28.863
rtoes 24.16
lfemur -22.3299 -2.6373 -11.3976
ltibia 18.0163
lfoot 7.73249 3.36044
ltoes 59.6736
166
root 27.2023 17.774 36.0666 -1.05666 -1.10953 -2.17547
lowerback 10.6165 0.660596 -1.82413
upperback 3.23161 0.791925 3.27717
thorax -2.65247 0.390094 4.34454
lowerneck -4.19889 -7.9729 -9.75874
upperneck 25.3414 -10.8104 3.75415
head 9.42075 -5.6009 1.86728
rclavicle 2.38542e-015 -1.66979e-014
rhumerus -27.0204 5.07582 -84.1709
rradius 36.3493
rwrist -16.4058
rhand -18.9035 -19.4062
rfingers 7.12502
rthumb 7.39827 -49.2569
lclavicle 2.38542e-015 -1.66979e-014
lhumerus -34.5221 12.0114 83.1507
lradius 28.0732
lwrist -0.930893
lhand -12.9474 -5.40295
lfingers 7.12502
lthumb 13.1439 24.1628
rfemur 5.53883 4.1607 30.2953
rtibia 30.5382
rfoot -8.51125 -28.627
rtoes 22.7996
lfemur -22.1044 -2.74429 -11.5129
ltibia 18.5227
lfoot 8.18176 3.27678
ltoes 58.6885
167
root 27.2175 17.7914 36.2264 -1.07966 -1.59211 -2.27348
lowerback 10.4131 0.557102 -1.96417
upperback 3.33204 0.636304 3.21394
thorax -2.42276 0.307048 4.37756
lowerneck -4.18324 -7.80852 -9.16213
upperneck 25.3497 -10.6169 3.55604
head 9.35417 -5.47916 1.72874
rclavicle -1.39149e-015 5.1684e-015
rhumerus -27.2967 4.66687 -84.5315
rradius 36.5677
rwrist -15.7281
rhand -18.4492 -19.7338
rfingers 7.12502
rthumb 7.83683 -49.5685
lclavicle -1.39149e-015 5.1684e-015
lhumerus -34.2787 12.5213 82.6991
lradius 28.0223
lwrist -1.10433
lhand -12.6432 -4.87622
lfingers 7.12502
lthumb 13.4371 24.6704
rfemur 4.99983 4.26174 30.2614
rtibia 32.4362
rfoot -8.96686 -28.4086
rtoes 21.0154
lfemur -21.6926 -2.71815 -11.5199
ltibia 18.8649
lfoot 8.52372 3.27526
ltoes 56.8399
